<mxfile host="app.diagrams.net" agent="Mozilla/5.0 (Windows NT 10.0; Win64; x64) AppleWebKit/537.36 (KHTML, like Gecko) Chrome/137.0.0.0 Safari/537.36 OPR/121.0.0.0" version="28.2.7">
  <diagram name="Strona-1" id="SbtRWi4jS-80_zD8mEeA">
    <mxGraphModel dx="1381" dy="757" grid="1" gridSize="10" guides="1" tooltips="1" connect="1" arrows="1" fold="1" page="1" pageScale="1" pageWidth="827" pageHeight="1169" math="0" shadow="0">
      <root>
        <mxCell id="0" />
        <mxCell id="1" parent="0" />
        <mxCell id="yjGzY6Qp31iufum4kbfB-6" value="" style="edgeStyle=orthogonalEdgeStyle;rounded=0;orthogonalLoop=1;jettySize=auto;html=1;entryX=0;entryY=0.5;entryDx=0;entryDy=0;" edge="1" parent="1" target="yjGzY6Qp31iufum4kbfB-4">
          <mxGeometry relative="1" as="geometry">
            <mxPoint x="380" y="190" as="sourcePoint" />
            <mxPoint x="430" y="110" as="targetPoint" />
            <Array as="points">
              <mxPoint x="420" y="190" />
              <mxPoint x="420" y="110" />
            </Array>
          </mxGeometry>
        </mxCell>
        <mxCell id="yjGzY6Qp31iufum4kbfB-11" style="edgeStyle=orthogonalEdgeStyle;rounded=0;orthogonalLoop=1;jettySize=auto;html=1;entryX=0;entryY=0.5;entryDx=0;entryDy=0;" edge="1" parent="1" source="yjGzY6Qp31iufum4kbfB-1" target="yjGzY6Qp31iufum4kbfB-9">
          <mxGeometry relative="1" as="geometry" />
        </mxCell>
        <mxCell id="yjGzY6Qp31iufum4kbfB-12" style="edgeStyle=orthogonalEdgeStyle;rounded=0;orthogonalLoop=1;jettySize=auto;html=1;entryX=0;entryY=0.5;entryDx=0;entryDy=0;" edge="1" parent="1" source="yjGzY6Qp31iufum4kbfB-1" target="yjGzY6Qp31iufum4kbfB-10">
          <mxGeometry relative="1" as="geometry" />
        </mxCell>
        <mxCell id="yjGzY6Qp31iufum4kbfB-1" value="Farm manager" style="rounded=0;whiteSpace=wrap;html=1;" vertex="1" parent="1">
          <mxGeometry x="260" y="160" width="120" height="60" as="geometry" />
        </mxCell>
        <mxCell id="yjGzY6Qp31iufum4kbfB-4" value="Create farm" style="whiteSpace=wrap;html=1;rounded=0;" vertex="1" parent="1">
          <mxGeometry x="464" y="80" width="120" height="60" as="geometry" />
        </mxCell>
        <mxCell id="yjGzY6Qp31iufum4kbfB-9" value="Load farm" style="rounded=0;whiteSpace=wrap;html=1;" vertex="1" parent="1">
          <mxGeometry x="464" y="160" width="120" height="60" as="geometry" />
        </mxCell>
        <mxCell id="yjGzY6Qp31iufum4kbfB-10" value="Remove farm" style="rounded=0;whiteSpace=wrap;html=1;" vertex="1" parent="1">
          <mxGeometry x="464" y="240" width="120" height="60" as="geometry" />
        </mxCell>
        <mxCell id="yjGzY6Qp31iufum4kbfB-14" style="edgeStyle=orthogonalEdgeStyle;rounded=0;orthogonalLoop=1;jettySize=auto;html=1;entryX=0;entryY=0.5;entryDx=0;entryDy=0;" edge="1" parent="1" source="yjGzY6Qp31iufum4kbfB-13" target="yjGzY6Qp31iufum4kbfB-1">
          <mxGeometry relative="1" as="geometry">
            <Array as="points">
              <mxPoint x="160" y="320" />
              <mxPoint x="160" y="190" />
            </Array>
          </mxGeometry>
        </mxCell>
        <mxCell id="yjGzY6Qp31iufum4kbfB-17" style="edgeStyle=orthogonalEdgeStyle;rounded=0;orthogonalLoop=1;jettySize=auto;html=1;" edge="1" parent="1">
          <mxGeometry relative="1" as="geometry">
            <mxPoint x="60" y="320" as="sourcePoint" />
            <mxPoint x="280" y="380" as="targetPoint" />
            <Array as="points">
              <mxPoint x="160" y="320" />
              <mxPoint x="160" y="380" />
            </Array>
          </mxGeometry>
        </mxCell>
        <mxCell id="yjGzY6Qp31iufum4kbfB-21" style="edgeStyle=orthogonalEdgeStyle;rounded=0;orthogonalLoop=1;jettySize=auto;html=1;entryX=0;entryY=0.5;entryDx=0;entryDy=0;" edge="1" parent="1" source="yjGzY6Qp31iufum4kbfB-13" target="yjGzY6Qp31iufum4kbfB-20">
          <mxGeometry relative="1" as="geometry">
            <Array as="points">
              <mxPoint x="160" y="320" />
              <mxPoint x="160" y="676" />
            </Array>
          </mxGeometry>
        </mxCell>
        <mxCell id="yjGzY6Qp31iufum4kbfB-13" value="Actor" style="shape=umlActor;verticalLabelPosition=bottom;verticalAlign=top;html=1;outlineConnect=0;" vertex="1" parent="1">
          <mxGeometry x="20" y="290" width="30" height="60" as="geometry" />
        </mxCell>
        <mxCell id="yjGzY6Qp31iufum4kbfB-23" value="" style="edgeStyle=orthogonalEdgeStyle;rounded=0;orthogonalLoop=1;jettySize=auto;html=1;" edge="1" parent="1" source="yjGzY6Qp31iufum4kbfB-16" target="yjGzY6Qp31iufum4kbfB-22">
          <mxGeometry relative="1" as="geometry" />
        </mxCell>
        <mxCell id="yjGzY6Qp31iufum4kbfB-27" value="" style="edgeStyle=orthogonalEdgeStyle;rounded=0;orthogonalLoop=1;jettySize=auto;html=1;" edge="1" parent="1" source="yjGzY6Qp31iufum4kbfB-16" target="yjGzY6Qp31iufum4kbfB-26">
          <mxGeometry relative="1" as="geometry">
            <Array as="points">
              <mxPoint x="420" y="380" />
              <mxPoint x="420" y="470" />
            </Array>
          </mxGeometry>
        </mxCell>
        <mxCell id="yjGzY6Qp31iufum4kbfB-29" value="" style="edgeStyle=orthogonalEdgeStyle;rounded=0;orthogonalLoop=1;jettySize=auto;html=1;exitX=1;exitY=0.5;exitDx=0;exitDy=0;entryX=0;entryY=0.5;entryDx=0;entryDy=0;" edge="1" parent="1" source="yjGzY6Qp31iufum4kbfB-16" target="yjGzY6Qp31iufum4kbfB-28">
          <mxGeometry relative="1" as="geometry">
            <mxPoint x="260" y="470" as="sourcePoint" />
            <mxPoint x="404" y="620" as="targetPoint" />
          </mxGeometry>
        </mxCell>
        <mxCell id="yjGzY6Qp31iufum4kbfB-16" value="Field manager" style="rounded=0;whiteSpace=wrap;html=1;" vertex="1" parent="1">
          <mxGeometry x="260" y="350" width="120" height="60" as="geometry" />
        </mxCell>
        <mxCell id="yjGzY6Qp31iufum4kbfB-19" value="Choses" style="text;html=1;whiteSpace=wrap;strokeColor=none;fillColor=none;align=center;verticalAlign=middle;rounded=0;" vertex="1" parent="1">
          <mxGeometry x="70" y="300" width="60" height="30" as="geometry" />
        </mxCell>
        <mxCell id="yjGzY6Qp31iufum4kbfB-48" style="edgeStyle=orthogonalEdgeStyle;rounded=0;orthogonalLoop=1;jettySize=auto;html=1;entryX=0;entryY=0.5;entryDx=0;entryDy=0;" edge="1" parent="1" source="yjGzY6Qp31iufum4kbfB-20" target="yjGzY6Qp31iufum4kbfB-37">
          <mxGeometry relative="1" as="geometry" />
        </mxCell>
        <mxCell id="yjGzY6Qp31iufum4kbfB-49" style="edgeStyle=orthogonalEdgeStyle;rounded=0;orthogonalLoop=1;jettySize=auto;html=1;entryX=0;entryY=0.5;entryDx=0;entryDy=0;" edge="1" parent="1" source="yjGzY6Qp31iufum4kbfB-20" target="yjGzY6Qp31iufum4kbfB-40">
          <mxGeometry relative="1" as="geometry" />
        </mxCell>
        <mxCell id="yjGzY6Qp31iufum4kbfB-50" style="edgeStyle=orthogonalEdgeStyle;rounded=0;orthogonalLoop=1;jettySize=auto;html=1;entryX=0;entryY=0.5;entryDx=0;entryDy=0;" edge="1" parent="1" source="yjGzY6Qp31iufum4kbfB-20" target="yjGzY6Qp31iufum4kbfB-39">
          <mxGeometry relative="1" as="geometry" />
        </mxCell>
        <mxCell id="yjGzY6Qp31iufum4kbfB-51" style="edgeStyle=orthogonalEdgeStyle;rounded=0;orthogonalLoop=1;jettySize=auto;html=1;entryX=0;entryY=0.5;entryDx=0;entryDy=0;" edge="1" parent="1" source="yjGzY6Qp31iufum4kbfB-20" target="yjGzY6Qp31iufum4kbfB-38">
          <mxGeometry relative="1" as="geometry" />
        </mxCell>
        <mxCell id="yjGzY6Qp31iufum4kbfB-52" style="edgeStyle=orthogonalEdgeStyle;rounded=0;orthogonalLoop=1;jettySize=auto;html=1;entryX=0;entryY=0.5;entryDx=0;entryDy=0;" edge="1" parent="1" source="yjGzY6Qp31iufum4kbfB-20" target="yjGzY6Qp31iufum4kbfB-41">
          <mxGeometry relative="1" as="geometry" />
        </mxCell>
        <mxCell id="yjGzY6Qp31iufum4kbfB-20" value="Status of farm" style="rounded=0;whiteSpace=wrap;html=1;" vertex="1" parent="1">
          <mxGeometry x="270" y="646" width="120" height="60" as="geometry" />
        </mxCell>
        <mxCell id="yjGzY6Qp31iufum4kbfB-22" value="Add new field" style="whiteSpace=wrap;html=1;rounded=0;" vertex="1" parent="1">
          <mxGeometry x="460" y="350" width="120" height="60" as="geometry" />
        </mxCell>
        <mxCell id="yjGzY6Qp31iufum4kbfB-26" value="Remove field" style="whiteSpace=wrap;html=1;rounded=0;" vertex="1" parent="1">
          <mxGeometry x="464" y="440" width="120" height="60" as="geometry" />
        </mxCell>
        <mxCell id="yjGzY6Qp31iufum4kbfB-32" value="" style="edgeStyle=orthogonalEdgeStyle;rounded=0;orthogonalLoop=1;jettySize=auto;html=1;" edge="1" parent="1" source="yjGzY6Qp31iufum4kbfB-28" target="yjGzY6Qp31iufum4kbfB-31">
          <mxGeometry relative="1" as="geometry">
            <Array as="points">
              <mxPoint x="630" y="560" />
              <mxPoint x="630" y="560" />
            </Array>
          </mxGeometry>
        </mxCell>
        <mxCell id="yjGzY6Qp31iufum4kbfB-35" style="edgeStyle=orthogonalEdgeStyle;rounded=0;orthogonalLoop=1;jettySize=auto;html=1;entryX=0;entryY=0.5;entryDx=0;entryDy=0;" edge="1" parent="1" source="yjGzY6Qp31iufum4kbfB-28" target="yjGzY6Qp31iufum4kbfB-33">
          <mxGeometry relative="1" as="geometry" />
        </mxCell>
        <mxCell id="yjGzY6Qp31iufum4kbfB-36" style="edgeStyle=orthogonalEdgeStyle;rounded=0;orthogonalLoop=1;jettySize=auto;html=1;entryX=0;entryY=0.5;entryDx=0;entryDy=0;" edge="1" parent="1" source="yjGzY6Qp31iufum4kbfB-28" target="yjGzY6Qp31iufum4kbfB-34">
          <mxGeometry relative="1" as="geometry" />
        </mxCell>
        <mxCell id="yjGzY6Qp31iufum4kbfB-28" value="Change status of field" style="whiteSpace=wrap;html=1;rounded=0;" vertex="1" parent="1">
          <mxGeometry x="464" y="530" width="120" height="60" as="geometry" />
        </mxCell>
        <mxCell id="yjGzY6Qp31iufum4kbfB-31" value="Change is limed" style="whiteSpace=wrap;html=1;rounded=0;" vertex="1" parent="1">
          <mxGeometry x="650" y="530" width="120" height="60" as="geometry" />
        </mxCell>
        <mxCell id="yjGzY6Qp31iufum4kbfB-33" value="Change is fertilized" style="whiteSpace=wrap;html=1;rounded=0;" vertex="1" parent="1">
          <mxGeometry x="650" y="600" width="120" height="60" as="geometry" />
        </mxCell>
        <mxCell id="yjGzY6Qp31iufum4kbfB-34" value="Change is seeded" style="whiteSpace=wrap;html=1;rounded=0;" vertex="1" parent="1">
          <mxGeometry x="650" y="670" width="120" height="60" as="geometry" />
        </mxCell>
        <mxCell id="yjGzY6Qp31iufum4kbfB-37" value="Get all ready to be harvested" style="whiteSpace=wrap;html=1;rounded=0;" vertex="1" parent="1">
          <mxGeometry x="464" y="646" width="120" height="60" as="geometry" />
        </mxCell>
        <mxCell id="yjGzY6Qp31iufum4kbfB-38" value="Get all requiring liming" style="whiteSpace=wrap;html=1;rounded=0;" vertex="1" parent="1">
          <mxGeometry x="464" y="866" width="120" height="60" as="geometry" />
        </mxCell>
        <mxCell id="yjGzY6Qp31iufum4kbfB-39" value="Get all requiring fertilizing" style="whiteSpace=wrap;html=1;rounded=0;" vertex="1" parent="1">
          <mxGeometry x="464" y="796" width="120" height="60" as="geometry" />
        </mxCell>
        <mxCell id="yjGzY6Qp31iufum4kbfB-40" value="Get all ready to be seeded" style="whiteSpace=wrap;html=1;rounded=0;" vertex="1" parent="1">
          <mxGeometry x="464" y="716" width="120" height="60" as="geometry" />
        </mxCell>
        <mxCell id="yjGzY6Qp31iufum4kbfB-45" style="edgeStyle=orthogonalEdgeStyle;rounded=0;orthogonalLoop=1;jettySize=auto;html=1;entryX=0;entryY=0.5;entryDx=0;entryDy=0;" edge="1" parent="1" source="yjGzY6Qp31iufum4kbfB-41" target="yjGzY6Qp31iufum4kbfB-42">
          <mxGeometry relative="1" as="geometry" />
        </mxCell>
        <mxCell id="yjGzY6Qp31iufum4kbfB-46" style="edgeStyle=orthogonalEdgeStyle;rounded=0;orthogonalLoop=1;jettySize=auto;html=1;entryX=0;entryY=0.5;entryDx=0;entryDy=0;" edge="1" parent="1" source="yjGzY6Qp31iufum4kbfB-41" target="yjGzY6Qp31iufum4kbfB-43">
          <mxGeometry relative="1" as="geometry" />
        </mxCell>
        <mxCell id="yjGzY6Qp31iufum4kbfB-47" style="edgeStyle=orthogonalEdgeStyle;rounded=0;orthogonalLoop=1;jettySize=auto;html=1;entryX=0;entryY=0.5;entryDx=0;entryDy=0;" edge="1" parent="1" source="yjGzY6Qp31iufum4kbfB-41" target="yjGzY6Qp31iufum4kbfB-44">
          <mxGeometry relative="1" as="geometry" />
        </mxCell>
        <mxCell id="yjGzY6Qp31iufum4kbfB-41" value="Calculate required expenses" style="whiteSpace=wrap;html=1;rounded=0;" vertex="1" parent="1">
          <mxGeometry x="464" y="937" width="120" height="60" as="geometry" />
        </mxCell>
        <mxCell id="yjGzY6Qp31iufum4kbfB-42" value="Calculate required lime expenses" style="whiteSpace=wrap;html=1;rounded=0;" vertex="1" parent="1">
          <mxGeometry x="650" y="866" width="120" height="60" as="geometry" />
        </mxCell>
        <mxCell id="yjGzY6Qp31iufum4kbfB-43" value="Calculate required fertilizer expenses" style="whiteSpace=wrap;html=1;rounded=0;" vertex="1" parent="1">
          <mxGeometry x="650" y="936" width="120" height="60" as="geometry" />
        </mxCell>
        <mxCell id="yjGzY6Qp31iufum4kbfB-44" value="Calculate required seeds expenses" style="whiteSpace=wrap;html=1;rounded=0;" vertex="1" parent="1">
          <mxGeometry x="650" y="1005" width="120" height="60" as="geometry" />
        </mxCell>
        <mxCell id="yjGzY6Qp31iufum4kbfB-53" value="Function that fetches information about crop requirements dynamically" style="ellipse;whiteSpace=wrap;html=1;" vertex="1" parent="1">
          <mxGeometry x="40" y="10" width="160" height="130" as="geometry" />
        </mxCell>
      </root>
    </mxGraphModel>
  </diagram>
</mxfile>
